<svg xmlns="http://www.w3.org/2000/svg" viewBox="0 0 900 620">
  <defs>
    <linearGradient id="bg" x1="0" x2="1">
      <stop offset="0" stop-color="#fff7e8"/>
      <stop offset="1" stop-color="#eef8ef"/>
    </linearGradient>
    <linearGradient id="green" x1="0" x2="1">
      <stop offset="0" stop-color="#2f8f46"/>
      <stop offset="1" stop-color="#54b96a"/>
    </linearGradient>
    <linearGradient id="orange" x1="0" x2="1">
      <stop offset="0" stop-color="#f39c12"/>
      <stop offset="1" stop-color="#ffc145"/>
    </linearGradient>
    <filter id="shadow" x="-20%" y="-20%" width="140%" height="140%">
      <feDropShadow dx="0" dy="10" stdDeviation="12" flood-opacity=".14"/>
    </filter>
  </defs>
  <rect width="900" height="620" rx="36" fill="url(#bg)"/>
  <circle cx="740" cy="110" r="58" fill="#ffe6a8" opacity=".9"/>
  <path d="M0 540 Q200 500 360 540 T900 550 V620 H0 Z" fill="#ddf0de"/>
  <g filter="url(#shadow)">
    <rect x="80" y="185" width="330" height="210" rx="22" fill="#ffffff"/>
    <rect x="80" y="165" width="330" height="48" rx="16" fill="url(#green)"/>
    <g fill="#ffffff">
      <rect x="102" y="175" width="24" height="26" rx="4"/><rect x="138" y="175" width="24" height="26" rx="4"/>
      <rect x="174" y="175" width="24" height="26" rx="4"/><rect x="210" y="175" width="24" height="26" rx="4"/>
      <rect x="246" y="175" width="24" height="26" rx="4"/><rect x="282" y="175" width="24" height="26" rx="4"/>
      <rect x="318" y="175" width="24" height="26" rx="4"/><rect x="354" y="175" width="24" height="26" rx="4"/>
    </g>
    <rect x="116" y="255" width="66" height="84" rx="12" fill="#eff7ef"/>
    <rect x="198" y="242" width="66" height="97" rx="12" fill="#fff4de"/>
    <rect x="280" y="222" width="66" height="117" rx="12" fill="#eef3fb"/>
    <path d="M116 356 C156 332 168 310 198 292 C226 276 244 270 280 246 C308 226 332 214 346 208" fill="none" stroke="#2f8f46" stroke-width="8" stroke-linecap="round"/>
    <path d="M325 207 l24 -4 -10 20" fill="none" stroke="#2f8f46" stroke-width="8" stroke-linecap="round" stroke-linejoin="round"/>
    <text x="245" y="385" text-anchor="middle" font-size="22" font-family="Arial, sans-serif" fill="#345">Ventas & margen</text>
  </g>
  <g transform="translate(455 220)" filter="url(#shadow)">
    <rect x="0" y="0" width="320" height="190" rx="26" fill="#ffffff"/>
    <path d="M40 50 h34 l16 70 h136 l22-50 h-170" fill="none" stroke="#2f8f46" stroke-width="12" stroke-linecap="round" stroke-linejoin="round"/>
    <circle cx="102" cy="144" r="15" fill="#2f8f46"/><circle cx="220" cy="144" r="15" fill="#2f8f46"/>
    <rect x="200" y="28" width="72" height="22" rx="11" fill="url(#orange)"/>
    <text x="236" y="44" text-anchor="middle" font-size="14" font-family="Arial, sans-serif" fill="#fff" font-weight="700">+12.4%</text>
    <g transform="translate(40 165)">
      <rect width="58" height="14" rx="7" fill="#eaf5ea"/>
      <rect x="74" width="84" height="14" rx="7" fill="#fff4de"/>
      <rect x="174" width="50" height="14" rx="7" fill="#eaf0fb"/>
    </g>
  </g>
  <g transform="translate(586 450)" filter="url(#shadow)">
    <rect x="0" y="0" width="150" height="92" rx="18" fill="#ffffff"/>
    <text x="75" y="34" text-anchor="middle" font-size="18" font-family="Arial, sans-serif" fill="#546372">Clientes</text>
    <text x="75" y="70" text-anchor="middle" font-size="34" font-family="Arial, sans-serif" fill="#2f8f46" font-weight="700">793</text>
  </g>
</svg>